<?xml version="1.0" encoding="UTF-8" standalone="no"?>
<!DOCTYPE svg PUBLIC "-//W3C//DTD SVG 1.1//EN"
 "http://www.w3.org/Graphics/SVG/1.1/DTD/svg11.dtd">
<!-- Generated by graphviz version 2.44.1 (20200629.0846)
 -->
<!-- Title: dependencies Pages: 1 -->
<svg width="2419pt" height="284pt"
 viewBox="0.00 0.00 2419.00 284.00" xmlns="http://www.w3.org/2000/svg" xmlns:xlink="http://www.w3.org/1999/xlink">
<g id="graph0" class="graph" transform="scale(1 1) rotate(0) translate(4 280)">
<title>dependencies</title>
<polygon fill="white" stroke="transparent" points="-4,4 -4,-280 2415,-280 2415,4 -4,4"/>
<text text-anchor="start" x="1184.51" y="-42.4" font-family="sans-serif" font-weight="bold" font-size="14.00">Legend</text>
<polygon fill="#ffffb3" stroke="transparent" points="971.5,-10 971.5,-30 991.5,-30 991.5,-10 971.5,-10"/>
<text text-anchor="start" x="995.13" y="-15.4" font-family="sans-serif" font-size="14.00"> &#160;Declarations</text>
<polygon fill="#8dd3c7" stroke="transparent" points="1084.5,-10 1084.5,-30 1104.5,-30 1104.5,-10 1084.5,-10"/>
<text text-anchor="start" x="1108.23" y="-15.4" font-family="sans-serif" font-size="14.00"> &#160;Module</text>
<polygon fill="#80b1d3" stroke="transparent" points="1170.5,-10 1170.5,-30 1190.5,-30 1190.5,-10 1170.5,-10"/>
<text text-anchor="start" x="1194.28" y="-15.4" font-family="sans-serif" font-size="14.00"> &#160;Bootstrap</text>
<polygon fill="#fdb462" stroke="transparent" points="1267.5,-10 1267.5,-30 1287.5,-30 1287.5,-10 1267.5,-10"/>
<text text-anchor="start" x="1291.17" y="-15.4" font-family="sans-serif" font-size="14.00"> &#160;Providers</text>
<polygon fill="#fb8072" stroke="transparent" points="1363.5,-10 1363.5,-30 1383.5,-30 1383.5,-10 1363.5,-10"/>
<text text-anchor="start" x="1387.23" y="-15.4" font-family="sans-serif" font-size="14.00"> &#160;Exports</text>
<g id="clust1" class="cluster">
<title>cluster_AppModule</title>
<polygon fill="none" stroke="black" stroke-dasharray="1,5" points="8,-70 8,-268 2403,-268 2403,-70 8,-70"/>
</g>
<g id="clust18" class="cluster">
<title>cluster_AppModule_imports</title>
<polygon fill="none" stroke="black" points="2251,-78 2251,-130 2395,-130 2395,-78 2251,-78"/>
</g>
<g id="clust2" class="cluster">
<title>cluster_AppModule_declarations</title>
<polygon fill="none" stroke="black" points="16,-78 16,-130 2243,-130 2243,-78 16,-78"/>
</g>
<g id="clust20" class="cluster">
<title>cluster_AppModule_bootstrap</title>
<polygon fill="none" stroke="black" points="1139,-208 1139,-260 1263,-260 1263,-208 1139,-208"/>
</g>
<!-- AlertasComponent -->
<g id="node1" class="node">
<title>AlertasComponent</title>
<polygon fill="#ffffb3" stroke="black" points="2234.75,-122 2113.25,-122 2113.25,-86 2234.75,-86 2234.75,-122"/>
<text text-anchor="middle" x="2174" y="-99.8" font-family="Times,serif" font-size="14.00">AlertasComponent</text>
</g>
<!-- AppModule -->
<g id="node16" class="node">
<title>AppModule</title>
<polygon fill="#8dd3c7" stroke="black" points="1242.66,-187 1239.66,-191 1218.66,-191 1215.66,-187 1159.34,-187 1159.34,-151 1242.66,-151 1242.66,-187"/>
<text text-anchor="middle" x="1201" y="-164.8" font-family="Times,serif" font-size="14.00">AppModule</text>
</g>
<!-- AlertasComponent&#45;&gt;AppModule -->
<g id="edge1" class="edge">
<title>AlertasComponent&#45;&gt;AppModule</title>
<path fill="none" stroke="black" d="M2174,-122.29C2174,-144.21 2174,-178 2174,-178 2174,-178 1252.81,-178 1252.81,-178"/>
<polygon fill="black" stroke="black" points="1252.81,-174.5 1242.81,-178 1252.81,-181.5 1252.81,-174.5"/>
</g>
<!-- AppComponent -->
<g id="node2" class="node">
<title>AppComponent</title>
<polygon fill="#ffffb3" stroke="black" points="2094.94,-122 1989.06,-122 1989.06,-86 2094.94,-86 2094.94,-122"/>
<text text-anchor="middle" x="2042" y="-99.8" font-family="Times,serif" font-size="14.00">AppComponent</text>
</g>
<!-- AppComponent&#45;&gt;AppModule -->
<g id="edge2" class="edge">
<title>AppComponent&#45;&gt;AppModule</title>
<path fill="none" stroke="black" d="M2042,-122.03C2042,-142.77 2042,-174 2042,-174 2042,-174 1252.71,-174 1252.71,-174"/>
<polygon fill="black" stroke="black" points="1252.71,-170.5 1242.71,-174 1252.71,-177.5 1252.71,-170.5"/>
</g>
<!-- CadastroComponent -->
<g id="node3" class="node">
<title>CadastroComponent</title>
<polygon fill="#ffffb3" stroke="black" points="1971.59,-122 1840.41,-122 1840.41,-86 1971.59,-86 1971.59,-122"/>
<text text-anchor="middle" x="1906" y="-99.8" font-family="Times,serif" font-size="14.00">CadastroComponent</text>
</g>
<!-- CadastroComponent&#45;&gt;AppModule -->
<g id="edge3" class="edge">
<title>CadastroComponent&#45;&gt;AppModule</title>
<path fill="none" stroke="black" d="M1906,-122.11C1906,-141.34 1906,-169 1906,-169 1906,-169 1252.73,-169 1252.73,-169"/>
<polygon fill="black" stroke="black" points="1252.73,-165.5 1242.73,-169 1252.73,-172.5 1252.73,-165.5"/>
</g>
<!-- ContatoComponent -->
<g id="node4" class="node">
<title>ContatoComponent</title>
<polygon fill="#ffffb3" stroke="black" points="1822.67,-122 1697.33,-122 1697.33,-86 1822.67,-86 1822.67,-122"/>
<text text-anchor="middle" x="1760" y="-99.8" font-family="Times,serif" font-size="14.00">ContatoComponent</text>
</g>
<!-- ContatoComponent&#45;&gt;AppModule -->
<g id="edge4" class="edge">
<title>ContatoComponent&#45;&gt;AppModule</title>
<path fill="none" stroke="black" d="M1760,-122.3C1760,-140.27 1760,-165 1760,-165 1760,-165 1253.02,-165 1253.02,-165"/>
<polygon fill="black" stroke="black" points="1253.02,-161.5 1243.02,-165 1253.02,-168.5 1253.02,-161.5"/>
</g>
<!-- DeletePostagemComponent -->
<g id="node5" class="node">
<title>DeletePostagemComponent</title>
<polygon fill="#ffffb3" stroke="black" points="1679.3,-122 1506.7,-122 1506.7,-86 1679.3,-86 1679.3,-122"/>
<text text-anchor="middle" x="1593" y="-99.8" font-family="Times,serif" font-size="14.00">DeletePostagemComponent</text>
</g>
<!-- DeletePostagemComponent&#45;&gt;AppModule -->
<g id="edge5" class="edge">
<title>DeletePostagemComponent&#45;&gt;AppModule</title>
<path fill="none" stroke="black" d="M1593,-122.03C1593,-138.4 1593,-160 1593,-160 1593,-160 1252.95,-160 1252.95,-160"/>
<polygon fill="black" stroke="black" points="1252.95,-156.5 1242.95,-160 1252.95,-163.5 1252.95,-156.5"/>
</g>
<!-- DeleteTemaComponent -->
<g id="node6" class="node">
<title>DeleteTemaComponent</title>
<polygon fill="#ffffb3" stroke="black" points="1488.74,-122 1339.26,-122 1339.26,-86 1488.74,-86 1488.74,-122"/>
<text text-anchor="middle" x="1414" y="-99.8" font-family="Times,serif" font-size="14.00">DeleteTemaComponent</text>
</g>
<!-- DeleteTemaComponent&#45;&gt;AppModule -->
<g id="edge6" class="edge">
<title>DeleteTemaComponent&#45;&gt;AppModule</title>
<path fill="none" stroke="black" d="M1414,-122.19C1414,-137.18 1414,-156 1414,-156 1414,-156 1252.83,-156 1252.83,-156"/>
<polygon fill="black" stroke="black" points="1252.83,-152.5 1242.83,-156 1252.83,-159.5 1252.83,-152.5"/>
</g>
<!-- FeedComponent -->
<g id="node7" class="node">
<title>FeedComponent</title>
<polygon fill="#ffffb3" stroke="black" points="1321.05,-122 1212.95,-122 1212.95,-86 1321.05,-86 1321.05,-122"/>
<text text-anchor="middle" x="1267" y="-99.8" font-family="Times,serif" font-size="14.00">FeedComponent</text>
</g>
<!-- FeedComponent&#45;&gt;AppModule -->
<g id="edge7" class="edge">
<title>FeedComponent&#45;&gt;AppModule</title>
<path fill="none" stroke="black" d="M1227.78,-122.11C1227.78,-122.11 1227.78,-140.99 1227.78,-140.99"/>
<polygon fill="black" stroke="black" points="1224.28,-140.99 1227.78,-150.99 1231.28,-140.99 1224.28,-140.99"/>
</g>
<!-- FooterComponent -->
<g id="node8" class="node">
<title>FooterComponent</title>
<polygon fill="#ffffb3" stroke="black" points="1194.88,-122 1077.12,-122 1077.12,-86 1194.88,-86 1194.88,-122"/>
<text text-anchor="middle" x="1136" y="-99.8" font-family="Times,serif" font-size="14.00">FooterComponent</text>
</g>
<!-- FooterComponent&#45;&gt;AppModule -->
<g id="edge8" class="edge">
<title>FooterComponent&#45;&gt;AppModule</title>
<path fill="none" stroke="black" d="M1177.06,-122.11C1177.06,-122.11 1177.06,-140.99 1177.06,-140.99"/>
<polygon fill="black" stroke="black" points="1173.56,-140.99 1177.06,-150.99 1180.56,-140.99 1173.56,-140.99"/>
</g>
<!-- FormulariosComponent -->
<g id="node9" class="node">
<title>FormulariosComponent</title>
<polygon fill="#ffffb3" stroke="black" points="1058.77,-122 909.23,-122 909.23,-86 1058.77,-86 1058.77,-122"/>
<text text-anchor="middle" x="984" y="-99.8" font-family="Times,serif" font-size="14.00">FormulariosComponent</text>
</g>
<!-- FormulariosComponent&#45;&gt;AppModule -->
<g id="edge9" class="edge">
<title>FormulariosComponent&#45;&gt;AppModule</title>
<path fill="none" stroke="black" d="M984,-122.19C984,-137.18 984,-156 984,-156 984,-156 1149.16,-156 1149.16,-156"/>
<polygon fill="black" stroke="black" points="1149.16,-159.5 1159.16,-156 1149.16,-152.5 1149.16,-159.5"/>
</g>
<!-- HomeComponent -->
<g id="node10" class="node">
<title>HomeComponent</title>
<polygon fill="#ffffb3" stroke="black" points="890.55,-122 775.45,-122 775.45,-86 890.55,-86 890.55,-122"/>
<text text-anchor="middle" x="833" y="-99.8" font-family="Times,serif" font-size="14.00">HomeComponent</text>
</g>
<!-- HomeComponent&#45;&gt;AppModule -->
<g id="edge10" class="edge">
<title>HomeComponent&#45;&gt;AppModule</title>
<path fill="none" stroke="black" d="M833,-122.03C833,-138.4 833,-160 833,-160 833,-160 1149.14,-160 1149.14,-160"/>
<polygon fill="black" stroke="black" points="1149.14,-163.5 1159.14,-160 1149.14,-156.5 1149.14,-163.5"/>
</g>
<!-- LoginComponent -->
<g id="node11" class="node">
<title>LoginComponent</title>
<polygon fill="#ffffb3" stroke="black" points="757.28,-122 642.72,-122 642.72,-86 757.28,-86 757.28,-122"/>
<text text-anchor="middle" x="700" y="-99.8" font-family="Times,serif" font-size="14.00">LoginComponent</text>
</g>
<!-- LoginComponent&#45;&gt;AppModule -->
<g id="edge11" class="edge">
<title>LoginComponent&#45;&gt;AppModule</title>
<path fill="none" stroke="black" d="M700,-122.3C700,-140.27 700,-165 700,-165 700,-165 1149.15,-165 1149.15,-165"/>
<polygon fill="black" stroke="black" points="1149.15,-168.5 1159.15,-165 1149.15,-161.5 1149.15,-168.5"/>
</g>
<!-- NavbarComponent -->
<g id="node12" class="node">
<title>NavbarComponent</title>
<polygon fill="#ffffb3" stroke="black" points="624.03,-122 501.97,-122 501.97,-86 624.03,-86 624.03,-122"/>
<text text-anchor="middle" x="563" y="-99.8" font-family="Times,serif" font-size="14.00">NavbarComponent</text>
</g>
<!-- NavbarComponent&#45;&gt;AppModule -->
<g id="edge12" class="edge">
<title>NavbarComponent&#45;&gt;AppModule</title>
<path fill="none" stroke="black" d="M563,-122.11C563,-141.34 563,-169 563,-169 563,-169 1149.14,-169 1149.14,-169"/>
<polygon fill="black" stroke="black" points="1149.14,-172.5 1159.14,-169 1149.14,-165.5 1149.14,-172.5"/>
</g>
<!-- PostTemaComponent -->
<g id="node13" class="node">
<title>PostTemaComponent</title>
<polygon fill="#ffffb3" stroke="black" points="483.82,-122 346.18,-122 346.18,-86 483.82,-86 483.82,-122"/>
<text text-anchor="middle" x="415" y="-99.8" font-family="Times,serif" font-size="14.00">PostTemaComponent</text>
</g>
<!-- PostTemaComponent&#45;&gt;AppModule -->
<g id="edge13" class="edge">
<title>PostTemaComponent&#45;&gt;AppModule</title>
<path fill="none" stroke="black" d="M415,-122.03C415,-142.77 415,-174 415,-174 415,-174 1149.3,-174 1149.3,-174"/>
<polygon fill="black" stroke="black" points="1149.3,-177.5 1159.3,-174 1149.3,-170.5 1149.3,-177.5"/>
</g>
<!-- PutPostagemComponent -->
<g id="node14" class="node">
<title>PutPostagemComponent</title>
<polygon fill="#ffffb3" stroke="black" points="328.44,-122 173.56,-122 173.56,-86 328.44,-86 328.44,-122"/>
<text text-anchor="middle" x="251" y="-99.8" font-family="Times,serif" font-size="14.00">PutPostagemComponent</text>
</g>
<!-- PutPostagemComponent&#45;&gt;AppModule -->
<g id="edge14" class="edge">
<title>PutPostagemComponent&#45;&gt;AppModule</title>
<path fill="none" stroke="black" d="M251,-122.29C251,-144.21 251,-178 251,-178 251,-178 1149.26,-178 1149.26,-178"/>
<polygon fill="black" stroke="black" points="1149.26,-181.5 1159.26,-178 1149.26,-174.5 1149.26,-181.5"/>
</g>
<!-- PutTemaComponent -->
<g id="node15" class="node">
<title>PutTemaComponent</title>
<polygon fill="#ffffb3" stroke="black" points="155.88,-122 24.12,-122 24.12,-86 155.88,-86 155.88,-122"/>
<text text-anchor="middle" x="90" y="-99.8" font-family="Times,serif" font-size="14.00">PutTemaComponent</text>
</g>
<!-- PutTemaComponent&#45;&gt;AppModule -->
<g id="edge15" class="edge">
<title>PutTemaComponent&#45;&gt;AppModule</title>
<path fill="none" stroke="black" d="M90,-122.32C90,-145.66 90,-183 90,-183 90,-183 1149.14,-183 1149.14,-183"/>
<polygon fill="black" stroke="black" points="1149.14,-186.5 1159.14,-183 1149.14,-179.5 1149.14,-186.5"/>
</g>
<!-- AppComponent  -->
<g id="node18" class="node">
<title>AppComponent </title>
<polygon fill="#80b1d3" stroke="black" points="1255.44,-252 1146.56,-252 1146.56,-216 1255.44,-216 1255.44,-252"/>
<text text-anchor="middle" x="1201" y="-229.8" font-family="Times,serif" font-size="14.00">AppComponent </text>
</g>
<!-- AppModule&#45;&gt;AppComponent  -->
<g id="edge17" class="edge">
<title>AppModule&#45;&gt;AppComponent </title>
<path fill="none" stroke="black" stroke-dasharray="1,5" d="M1201,-187.11C1201,-187.11 1201,-205.99 1201,-205.99"/>
<polygon fill="black" stroke="black" points="1197.5,-205.99 1201,-215.99 1204.5,-205.99 1197.5,-205.99"/>
</g>
<!-- AppRoutingModule -->
<g id="node17" class="node">
<title>AppRoutingModule</title>
<polygon fill="#8dd3c7" stroke="black" points="2387.27,-122 2384.27,-126 2363.27,-126 2360.27,-122 2258.73,-122 2258.73,-86 2387.27,-86 2387.27,-122"/>
<text text-anchor="middle" x="2323" y="-99.8" font-family="Times,serif" font-size="14.00">AppRoutingModule</text>
</g>
<!-- AppRoutingModule&#45;&gt;AppModule -->
<g id="edge16" class="edge">
<title>AppRoutingModule&#45;&gt;AppModule</title>
<path fill="none" stroke="black" d="M2323,-122.32C2323,-145.66 2323,-183 2323,-183 2323,-183 1252.94,-183 1252.94,-183"/>
<polygon fill="black" stroke="black" points="1252.94,-179.5 1242.94,-183 1252.94,-186.5 1252.94,-179.5"/>
</g>
</g>
</svg>
